<svg version="1.1" id="레이어_1" xmlns="http://www.w3.org/2000/svg" xmlns:xlink="http://www.w3.org/1999/xlink" x="0px"
	 y="0px" viewBox="0 0 195.11 208.66" style="enable-background:new 0 0 195.11 208.66;" xml:space="preserve">
<style type="text/css">
	.st0{fill:#00A7E1;stroke:#00A7E1;stroke-width:0.4221;stroke-miterlimit:10;}
	.st1{fill:#00A7E1;}
	.st2{fill:#FFFFFF;}
</style>
<g>
	<g>
		<g>
			<path class="st0" d="M32.29,98.94l6.7-22.46h3.67c0.72,0,1.06,0.44,1.25,1.01l6.33,21.45h-2.77l-2.05-7.27h-8.24L35.43,98
				c-0.16,0.56-0.56,0.95-1.22,0.95H32.29z M41.83,78.97h-1.09l-2.87,10.25h6.86L41.83,78.97z"/>
			<path class="st0" d="M64.78,79.11h-5.56c-0.4,0-0.61-0.21-0.61-0.62v-1.86h15.02v1.86c0,0.41-0.21,0.62-0.61,0.62h-5.61v19.18
				c0,0.44-0.21,0.65-0.64,0.65h-1.99V79.11z"/>
			<path class="st0" d="M93.82,99.12c-5.56,0-9.07-3.43-9.07-11.47s3.51-11.47,9.07-11.47c5.5,0,9.04,3.43,9.04,11.47
				S99.32,99.12,93.82,99.12z M93.82,78.7c-3.8,0-6.46,2.39-6.46,8.95c0,6.56,2.66,8.95,6.46,8.95c3.72,0,6.41-2.39,6.41-8.95
				C100.23,81.09,97.54,78.7,93.82,78.7z"/>
			<path class="st0" d="M126.13,95.01c-0.19,0.56-0.61,0.95-1.33,0.95h-1.2l-5.24-14.45l-0.66-2.13h-0.05v18.91
				c0,0.44-0.21,0.65-0.64,0.65h-1.97V76.48h3.03c0.56,0,0.96,0.32,1.2,0.95l5.05,13.98l0.35,1.18l0.35-1.18l4.52-13.5
				c0.35-1.06,0.9-1.42,1.86-1.42h2.63v21.81c0,0.44-0.21,0.65-0.61,0.65h-2.02V79.38h-0.05l-0.64,2.13L126.13,95.01z"/>
			<path class="st0" d="M156.63,88.84c-0.53,1.06-0.74,1.86-0.74,3.19v6.27c0,0.44-0.19,0.65-0.56,0.65h-2.13v-8.72l-6.97-13.74
				h2.95l5.34,10.82l4.71-9.6c0.45-0.95,0.85-1.21,1.81-1.21h1.78L156.63,88.84z"/>
		</g>
		<g>
			<path class="st1" d="M191.17,55.43c-9.42,0-12-4.68-12.41-5.35h11.64c0,0,3.27,0.27,3.27-3.5c0-3.68-3.27-3.52-3.27-3.52h-14.27
				v-2.45h14.37c0,0,3.49,0.25,3.49-3.31c0-3.46-3.49-3.32-3.49-3.32h-14.37v-2.16h12.59c0,0,3.27,0.23,3.27-3.06
				c0-3.2-3.27-3.07-3.27-3.07h-12.59v-2.26h15.71c0,0,3.27,0.26,3.27-3.51c0-3.67-3.27-3.52-3.27-3.52h-8.15
				c0,0,3.49-3.53,1.06-5.72c-2.37-2.13-4.45,0.39-4.45,0.39l-4.81,5.33h0h-5.35h-0.01l-4.81-5.33c0,0-2.09-2.52-4.46-0.39
				c-2.43,2.18,1.07,5.72,1.07,5.72h-8.16c0,0-3.27-0.15-3.27,3.52c0,3.77,3.27,3.51,3.27,3.51h15.71v2.26h-12.6
				c0,0-3.27-0.14-3.27,3.07c0,3.29,3.27,3.06,3.27,3.06h12.6v2.16H155.1c0,0-3.49-0.15-3.49,3.32c0,3.56,3.49,3.31,3.49,3.31h14.37
				v2.45h-14.28c0,0-3.27-0.16-3.27,3.52c0,3.77,3.27,3.5,3.27,3.5h11.65c-0.41,0.67-3,5.35-12.42,5.35c-3.93,0-4.15,2.68-3.83,4.38
				c0.26,1.45,1.79,2.54,3.33,2.5c0,0,12.39,0.87,18.88-8.34c6.5,9.21,18.88,8.34,18.88,8.34c1.53,0.04,3.06-1.05,3.33-2.5
				C195.32,58.12,195.11,55.43,191.17,55.43z"/>
			<path class="st1" d="M19.51,62.39c9.86,0,12.25-7.13,12.25-7.13v3.86c0,2.21,1.65,3.27,3.42,3.27c1.42,0,3.42-0.65,3.42-3.27
				V17.32c0-2.76-2-3.42-3.42-3.42c-1.5,0-3.42,0.65-3.42,3.42v2.91c0,0-3.06-6.33-12.25-6.33C7,13.9,0,25.58,0,38.14
				C0,50.72,7,62.39,19.51,62.39z M19.33,21.65c8.87,0,11.98,9.1,11.98,16.81c0,7.73-3.12,16.84-11.98,16.84
				c-8.87,0-11.99-9.11-11.99-16.84C7.34,30.75,10.46,21.65,19.33,21.65z"/>
			<path class="st1" d="M43.62,20.67h5.27v38.45c0,1.91,1.41,3.27,3.67,3.27c2.24,0,3.67-1.35,3.67-3.27V20.67h5.27
				c2.42,0,3.67-1.25,3.67-3.4c0-2.14-1.25-3.38-3.67-3.38h-5.27V3.7c0-1.65-0.33-3.7-3.67-3.7c-3.11,0-3.67,2.09-3.67,3.7v10.2
				h-5.27c-2.42,0-3.67,1.24-3.67,3.38C39.96,19.43,41.2,20.67,43.62,20.67z"/>
			<path class="st1" d="M80.59,62.39c12.5,0,19.5-11.68,19.5-24.25c0-12.56-7-24.24-19.5-24.24c-12.49,0-19.51,11.68-19.51,24.24
				C61.09,50.72,68.1,62.39,80.59,62.39z M80.59,21.16c8.99,0,12.16,9.26,12.16,17.12c0,7.88-3.17,17.15-12.16,17.15
				c-9,0-12.16-9.27-12.16-17.15C68.43,30.42,71.6,21.16,80.59,21.16z"/>
			<path class="st1" d="M147.94,24.74c0-6.56-6.29-10.67-12.06-10.67c-4.87,0-9.04,2.04-10.84,4.94c-1.42-2.91-4.71-4.94-8.54-4.94
				c-3.14,0-5.93,1.37-7.61,3.47c-0.01-2.64-1.01-3.64-3-3.64c-2.3,0-3.27,1.06-3.27,3.83v41.4c0,0,0,3.27,3.5,3.27h0.01h0.02
				c3.63,0,3.49-3.27,3.49-3.27V27.87c0-1.15,0.39-5.25,6.1-5.25c5.37,0,6.03,3.31,6.03,5.25v31.25c0,0-0.09,3.27,3.51,3.27
				c3.7,0,3.5-3.27,3.5-3.27V27.87c0-2.47,1.43-5.25,6.05-5.25c5.57,0,6.08,3.31,6.08,5.25v31.25c0,0-0.15,3.27,3.52,3.27
				c3.77,0,3.5-3.27,3.5-3.27V24.74z"/>
			<path class="st1" d="M176.13,25.12l7.56-8.71c0,0,3.49-3.53,1.06-5.72c-2.37-2.13-4.45,0.39-4.45,0.39l-4.81,5.33h0l-2.55,2.92
				l-2.8-2.92h-0.01l-4.81-5.33c0,0-2.09-2.52-4.46-0.39c-2.43,2.18,1.07,5.72,1.07,5.72l7.56,8.71v24.64c0,0-0.19,4.16,3.33,4.16
				c3.52,0,3.31-4.37,3.31-4.37L176.13,25.12z"/>
		</g>
	</g>
</g>
</svg>
